<!DOCTYPE svg PUBLIC "-//W3C//DTD SVG 1.1//EN" "http://www.w3.org/Graphics/SVG/1.1/DTD/svg11.dtd">
<!-- Uploaded to: SVG Repo, www.svgrepo.com, Transformed by: SVG Repo Mixer Tools -->
<svg width="256px" height="256px" viewBox="-31.7 -31.7 380.40 380.40" version="1.1" xmlns="http://www.w3.org/2000/svg" xmlns:xlink="http://www.w3.org/1999/xlink" preserveAspectRatio="xMidYMid" fill="#ffffff">
<g id="SVGRepo_bgCarrier" stroke-width="0">
<path transform="translate(-31.7, -31.7), scale(23.775)" fill="#b8edff" d="M9.166.33a2.25 2.25 0 00-2.332 0l-5.25 3.182A2.25 2.25 0 00.5 5.436v5.128a2.25 2.25 0 001.084 1.924l5.25 3.182a2.25 2.25 0 002.332 0l5.25-3.182a2.25 2.25 0 001.084-1.924V5.436a2.25 2.25 0 00-1.084-1.924L9.166.33z" strokewidth="0"/>
</g>
<g id="SVGRepo_tracerCarrier" stroke-linecap="round" stroke-linejoin="round" stroke="#fffafa" stroke-width="31.7"> <defs> <linearGradient x1="3.9517088%" y1="26.9930287%" x2="75.8970734%" y2="52.9192657%" id="linearGradient-1"> <stop stop-color="#000000" offset="0%"> </stop> <stop stop-color="#000000" stop-opacity="0" offset="100%"> </stop> </linearGradient> </defs> <g> <polygon fill="#47C5FB" points="157.665785 0.000549356223 0.000549356223 157.665785 48.8009614 206.466197 255.267708 0.000549356223"> </polygon> <polygon fill="#47C5FB" points="156.567183 145.396793 72.1487107 229.815265 121.132608 279.530905 169.842925 230.820587 255.267818 145.396793"> </polygon> <polygon fill="#00569E" points="121.133047 279.531124 158.214592 316.61267 255.267159 316.61267 169.842266 230.820807"> </polygon> <polygon fill="#00B5F8" points="71.5995742 230.364072 120.401085 181.562561 169.842046 230.821136 121.132827 279.531454"> </polygon> <polygon fill-opacity="0.8" fill="url(#linearGradient-1)" points="121.132827 279.531454 161.692896 266.072227 165.721875 234.941308"> </polygon> </g> </g>
<g id="SVGRepo_iconCarrier"> <defs> <linearGradient x1="3.9517088%" y1="26.9930287%" x2="75.8970734%" y2="52.9192657%" id="linearGradient-1"> <stop stop-color="#000000" offset="0%"> </stop> <stop stop-color="#000000" stop-opacity="0" offset="100%"> </stop> </linearGradient> </defs> <g> <polygon fill="#47C5FB" points="157.665785 0.000549356223 0.000549356223 157.665785 48.8009614 206.466197 255.267708 0.000549356223"> </polygon> <polygon fill="#47C5FB" points="156.567183 145.396793 72.1487107 229.815265 121.132608 279.530905 169.842925 230.820587 255.267818 145.396793"> </polygon> <polygon fill="#00569E" points="121.133047 279.531124 158.214592 316.61267 255.267159 316.61267 169.842266 230.820807"> </polygon> <polygon fill="#00B5F8" points="71.5995742 230.364072 120.401085 181.562561 169.842046 230.821136 121.132827 279.531454"> </polygon> <polygon fill-opacity="0.8" fill="url(#linearGradient-1)" points="121.132827 279.531454 161.692896 266.072227 165.721875 234.941308"> </polygon> </g> </g>
</svg>