<!DOCTYPE svg PUBLIC "-//W3C//DTD SVG 1.1//EN" "http://www.w3.org/Graphics/SVG/1.1/DTD/svg11.dtd">
<!-- Uploaded to: SVG Repo, www.svgrepo.com, Transformed by: SVG Repo Mixer Tools -->
<svg fill="#000000" width="256px" height="256px" viewBox="-12.8 -12.8 153.60 153.60" id="Layer_1" version="1.1" xml:space="preserve" xmlns="http://www.w3.org/2000/svg" xmlns:xlink="http://www.w3.org/1999/xlink" stroke="#000000">
<g id="SVGRepo_bgCarrier" stroke-width="0">
<path transform="translate(-12.8, -12.8), scale(9.6)" fill="#000000" d="M9.166.33a2.25 2.25 0 00-2.332 0l-5.25 3.182A2.25 2.25 0 00.5 5.436v5.128a2.25 2.25 0 001.084 1.924l5.25 3.182a2.25 2.25 0 002.332 0l5.25-3.182a2.25 2.25 0 001.084-1.924V5.436a2.25 2.25 0 00-1.084-1.924L9.166.33z" strokewidth="0"/>
</g>
<g id="SVGRepo_tracerCarrier" stroke-linecap="round" stroke-linejoin="round"/>
<g id="SVGRepo_iconCarrier"> <g> <path d="M32.2,9L1,64l31.2,55h63.5L127,64L95.8,9H32.2z M91.1,111H36.9L10.2,64l26.7-47h54.2l26.7,47L91.1,111z"/> <path d="M64,35c-16,0-29,13-29,29c0,16,13,29,29,29s29-13,29-29C93,48,80,35,64,35z M64,85c-11.6,0-21-9.4-21-21s9.4-21,21-21 s21,9.4,21,21S75.6,85,64,85z"/> </g> </g>
</svg>