<!DOCTYPE svg PUBLIC "-//W3C//DTD SVG 1.1//EN" "http://www.w3.org/Graphics/SVG/1.1/DTD/svg11.dtd">
<!-- Uploaded to: SVG Repo, www.svgrepo.com, Transformed by: SVG Repo Mixer Tools -->
<svg width="256px" height="256px" viewBox="-3.6 -3.6 31.20 31.20" xmlns="http://www.w3.org/2000/svg" fill="none">
<g id="SVGRepo_bgCarrier" stroke-width="0">
<path transform="translate(-3.6, -3.6), scale(1.9500000000000002)" fill="#e1e1e1" d="M9.166.33a2.25 2.25 0 00-2.332 0l-5.25 3.182A2.25 2.25 0 00.5 5.436v5.128a2.25 2.25 0 001.084 1.924l5.25 3.182a2.25 2.25 0 002.332 0l5.25-3.182a2.25 2.25 0 001.084-1.924V5.436a2.25 2.25 0 00-1.084-1.924L9.166.33z" strokewidth="0"/>
</g>
<g id="SVGRepo_tracerCarrier" stroke-linecap="round" stroke-linejoin="round" stroke="#ffffff" stroke-width="2.4">
<path fill="#000000" fill-rule="evenodd" d="M1 12C1 5.925 5.925 1 12 1s11 4.925 11 11-4.925 11-11 11S1 18.075 1 12zm13.8-2.6a1 1 0 0 0-1.6 1.2l1.05 1.4-1.05 1.4a1 1 0 0 0 1.6 1.2l.7-.933.7.933a1 1 0 0 0 1.6-1.2L16.75 12l1.05-1.4a1 1 0 0 0-1.6-1.2l-.7.933-.7-.933zM8 10a1 1 0 1 0-2 0v2c0 .493.14 1.211.588 1.834C7.074 14.51 7.874 15 9 15s1.926-.492 2.412-1.166c.448-.623.588-1.34.588-1.834v-2a1 1 0 1 0-2 0v2c0 .173-.06.456-.212.666-.114.159-.314.334-.788.334-.474 0-.674-.175-.788-.334A1.239 1.239 0 0 1 8 12v-2z" clip-rule="evenodd"/>
</g>
<g id="SVGRepo_iconCarrier">
<path fill="#000000" fill-rule="evenodd" d="M1 12C1 5.925 5.925 1 12 1s11 4.925 11 11-4.925 11-11 11S1 18.075 1 12zm13.8-2.6a1 1 0 0 0-1.6 1.2l1.05 1.4-1.05 1.4a1 1 0 0 0 1.6 1.2l.7-.933.7.933a1 1 0 0 0 1.6-1.2L16.75 12l1.05-1.4a1 1 0 0 0-1.6-1.2l-.7.933-.7-.933zM8 10a1 1 0 1 0-2 0v2c0 .493.14 1.211.588 1.834C7.074 14.51 7.874 15 9 15s1.926-.492 2.412-1.166c.448-.623.588-1.34.588-1.834v-2a1 1 0 1 0-2 0v2c0 .173-.06.456-.212.666-.114.159-.314.334-.788.334-.474 0-.674-.175-.788-.334A1.239 1.239 0 0 1 8 12v-2z" clip-rule="evenodd"/>
</g>
</svg>