<svg xmlns="http://www.w3.org/2000/svg" xmlns:v="https://svgstorm.com"
viewBox = "0 0 800 800"
width="800"
height="800">
<g fill="None" fill-opacity="0.0" stroke="#000000" stroke-opacity="0.00" stroke-width="0.3"><path d="
M 0.00 183.00 
C 6.62 89.26 89.33 6.61 183.00 0.00
L 0.00 0.00
L 0.00 183.00 Z"/>
</g>
<g fill="None" fill-opacity="0.0" stroke="#1E1A1E" stroke-opacity="1.00" stroke-width="0.3"><path d="
M 0.00 183.00 
L 0.00 187.00
C 1.43 188.03 1.69 192.04 0.00 193.00
L 0.00 617.00
C 6.62 710.74 89.33 793.39 183.00 800.00
L 187.00 800.00
C 188.03 798.57 192.04 798.31 193.00 800.00
L 617.00 800.00
C 710.74 793.38 793.39 710.67 800.00 617.00
L 800.00 193.00
C 798.57 191.97 798.31 187.96 800.00 187.00
L 800.00 183.00
C 793.37 89.26 710.67 6.61 617.00 0.00
L 193.00 0.00
C 191.97 1.43 187.96 1.69 187.00 0.00
L 183.00 0.00
C 89.33 6.61 6.62 89.26 0.00 183.00
M 317.00 218.00 
C 319.49 221.67 322.09 224.68 324.00 229.00
C 325.84 233.16 327.92 236.92 330.00 241.00
C 333.48 245.78 336.47 250.39 339.00 256.00
C 339.76 257.69 340.24 259.31 341.00 261.00
C 344.05 265.44 346.45 269.01 349.00 274.00
C 374.62 324.12 402.93 372.86 428.00 423.00
C 443.91 446.43 454.13 474.07 468.00 499.00
C 459.05 499.34 449.69 502.02 440.98 502.98 C 432.26 503.93 422.39 505.35 416.00 509.00
C 418.43 509.50 421.51 509.00 424.00 509.00
C 427.75 509.00 431.99 509.71 435.00 510.00
C 439.00 510.00 443.00 510.00 447.00 510.00
C 462.67 510.00 478.33 510.00 494.00 510.00
C 513.73 510.00 538.82 513.71 557.00 507.00
C 595.20 492.90 587.34 433.00 551.00 424.00
C 531.14 419.08 508.43 425.61 488.00 423.00
C 488.09 412.56 487.88 402.47 488.00 392.00 C 488.12 381.53 487.77 371.60 488.00 361.00 C 488.23 350.40 505.65 356.03 514.00 355.00 C 522.35 353.97 535.23 355.66 543.02 353.02 C 550.82 350.39 555.98 346.65 561.25 340.25 C 566.52 333.85 569.16 324.37 569.00 316.00 C 568.84 307.63 565.63 300.01 560.75 293.25 C 555.86 286.50 547.72 283.85 541.00 281.00
C 519.99 276.94 497.43 283.09 476.00 281.00 C 454.57 278.91 431.58 282.56 410.00 281.00
C 410.00 258.33 410.00 235.67 410.00 213.00
C 457.91 213.67 506.53 211.67 554.00 214.00
C 560.53 215.04 566.17 215.77 572.00 218.00
C 574.90 219.11 577.92 220.05 581.00 221.00
C 586.29 222.63 589.76 224.72 594.00 228.00
C 614.61 239.86 630.34 259.17 636.00 282.00
C 637.03 284.62 638.72 286.50 639.00 290.00
C 640.42 307.94 638.99 324.12 635.00 341.00
C 633.70 346.49 631.72 351.85 628.00 356.00
C 627.68 356.77 627.15 357.16 627.00 358.00
C 626.91 358.48 627.00 359.00 627.00 359.00
C 625.80 362.34 623.06 363.54 621.00 366.00
C 619.71 368.08 618.52 370.08 617.00 372.00
C 610.58 380.13 607.65 383.54 616.75 388.25 C 625.85 392.97 627.45 397.04 633.75 403.25 C 640.05 409.46 643.19 414.65 646.77 422.23 C 650.35 429.81 654.09 436.72 655.78 445.22 C 657.47 453.73 656.88 467.10 657.00 476.00 C 657.12 484.90 654.03 494.66 651.68 502.68 C 649.32 510.70 645.80 517.80 641.70 524.70 C 637.60 531.60 633.61 537.36 628.25 543.25 C 622.88 549.13 617.16 554.34 611.00 559.00
C 610.04 559.73 608.99 560.39 608.00 561.00
C 596.98 567.81 588.65 570.97 575.98 574.98 C 563.30 578.99 547.44 578.64 533.00 579.00 C 518.56 579.36 500.82 578.51 486.00 579.00 C 471.18 579.49 453.62 578.04 439.00 579.00 C 424.38 579.96 422.18 565.02 416.08 554.92 C 409.97 544.83 405.63 534.14 400.08 523.92 C 394.52 513.71 388.25 503.83 384.00 493.00
C 377.97 490.87 378.51 479.51 373.75 475.25 C 368.98 471.00 368.06 461.38 363.70 456.30 C 359.34 451.23 357.19 443.88 353.75 438.25 C 350.30 432.63 345.83 425.76 343.23 419.77 C 340.63 413.78 336.26 406.56 334.08 400.92 C 331.89 395.29 326.60 386.45 323.25 382.75 C 319.90 379.06 317.14 363.82 312.00 367.00
C 307.66 381.78 297.12 395.83 291.00 410.00
C 287.77 417.49 284.01 424.17 280.00 431.00
C 273.06 445.83 264.46 460.04 258.00 475.00
C 255.81 480.07 252.80 484.62 250.00 489.00
C 245.05 498.69 240.19 509.64 235.08 519.08 C 229.96 528.51 225.35 540.16 219.68 548.68 C 214.00 557.20 211.52 572.35 203.00 577.00
C 193.51 582.18 177.26 578.78 166.00 579.00 C 154.74 579.22 138.31 581.12 128.00 578.00
C 126.78 577.63 125.25 578.28 124.00 578.00
C 155.38 515.25 187.45 452.60 220.00 391.00
C 237.51 355.60 256.06 320.10 274.00 285.00
C 281.51 270.30 290.45 256.18 297.00 241.00
C 301.45 230.68 306.68 219.99 313.00 211.00
C 314.43 213.34 317.01 215.03 317.00 218.00
M 478.00 296.00 
C 482.11 315.87 478.03 338.03 479.00 359.00 C 479.97 379.97 479.01 402.89 479.00 424.00 C 478.99 445.11 480.45 467.77 478.00 488.00
C 477.95 490.33 478.04 492.67 478.00 495.00
C 459.93 462.60 441.59 430.16 425.00 397.00
C 420.56 390.59 415.81 383.60 413.00 376.00
C 411.55 372.07 411.53 368.24 411.00 364.00
C 408.01 339.91 411.16 314.53 410.00 290.00
C 421.26 291.04 436.10 288.61 447.00 290.00 C 457.90 291.39 475.15 284.73 478.00 296.00
M 378.00 504.00 
C 336.70 503.53 294.90 505.06 254.00 503.00
C 257.47 494.58 261.89 485.40 266.77 477.77 C 271.65 470.14 274.42 459.80 279.77 452.77 C 285.12 445.75 286.46 431.86 297.00 432.00 C 307.55 432.14 323.03 433.96 334.00 433.00 C 344.97 432.04 346.07 445.86 351.75 453.25 C 357.43 460.63 360.05 469.82 365.30 477.70 C 370.56 485.57 372.59 496.02 378.00 504.00 Z"/>
</g>
<g fill="None" fill-opacity="0.0" stroke="#1E1B1E" stroke-opacity="0.69" stroke-width="0.3"><path d="
M 193.00 0.00 
L 187.00 0.00
C 187.96 1.69 191.97 1.43 193.00 0.00 Z"/>
</g>
<g fill="None" fill-opacity="0.0" stroke="#000000" stroke-opacity="0.00" stroke-width="0.3"><path d="
M 800.00 183.00 
L 800.00 0.00
L 617.00 0.00
C 710.67 6.61 793.37 89.26 800.00 183.00 Z"/>
</g>
<g fill="None" fill-opacity="0.0" stroke="#1E1B1E" stroke-opacity="0.69" stroke-width="0.3"><path d="
M 0.00 193.00 
C 1.69 192.04 1.43 188.03 0.00 187.00
L 0.00 193.00 Z"/>
</g>
<g fill="None" fill-opacity="0.0" stroke="#1E1B1E" stroke-opacity="0.69" stroke-width="0.3"><path d="
M 800.00 193.00 
L 800.00 187.00
C 798.31 187.96 798.57 191.97 800.00 193.00 Z"/>
</g>
<g fill="None" fill-opacity="0.0" stroke="#969597" stroke-opacity="1.00" stroke-width="0.3"><path d="
M 297.00 241.00 
C 296.64 252.03 308.74 262.36 311.31 273.69 C 313.87 285.03 321.95 295.91 325.77 307.23 C 329.59 318.55 334.95 330.35 339.31 341.69 C 343.66 353.04 348.06 364.09 352.32 375.68 C 356.58 387.27 360.85 399.20 364.98 411.02 C 369.10 422.85 373.33 434.92 376.98 447.02 C 380.62 459.13 385.07 471.61 388.00 484.00
C 385.10 481.37 382.97 479.28 379.00 481.00
C 379.15 485.14 381.92 488.59 384.00 492.00
C 391.49 490.83 394.86 498.97 401.00 501.00
C 399.42 513.22 416.23 508.88 424.00 510.00
C 423.96 510.00 424.00 509.00 424.00 509.00
C 421.51 509.00 418.43 509.50 416.00 509.00
C 407.31 507.23 398.59 499.61 404.75 491.75 C 410.92 483.89 410.13 476.65 415.92 468.92 C 421.72 461.20 420.74 454.11 427.31 446.31 C 433.87 438.50 432.50 432.00 428.00 423.00
C 402.93 372.86 374.62 324.12 349.00 274.00
C 346.31 269.79 343.17 265.82 341.00 261.00
C 340.24 259.31 339.76 257.69 339.00 256.00
C 336.01 251.11 332.74 246.35 330.00 241.00
C 327.92 236.92 325.84 233.16 324.00 229.00
C 321.65 225.33 318.99 222.21 317.00 218.00
C 317.01 215.03 314.43 213.34 313.00 211.00
C 306.68 219.99 301.45 230.68 297.00 241.00 Z"/>
</g>
<g fill="None" fill-opacity="0.0" stroke="#858585" stroke-opacity="1.00" stroke-width="0.3"><path d="
M 541.00 281.00 
C 539.38 276.84 546.31 270.90 545.78 265.78 C 545.24 260.66 548.81 254.13 549.93 248.93 C 551.04 243.72 552.38 237.26 553.93 231.93 C 555.48 226.60 555.90 220.24 558.00 215.00
C 556.72 214.72 554.50 215.76 554.00 214.00
C 506.53 211.67 457.91 213.67 410.00 213.00
C 410.00 235.67 410.00 258.33 410.00 281.00
C 431.58 282.56 454.57 278.91 476.00 281.00 C 497.43 283.09 519.99 276.94 541.00 281.00 Z"/>
</g>
<g fill="None" fill-opacity="0.0" stroke="#747273" stroke-opacity="1.00" stroke-width="0.3"><path d="
M 541.00 281.00 
C 547.72 283.85 555.86 286.50 560.75 293.25 C 565.63 300.01 568.84 307.63 569.00 316.00 C 569.16 324.37 566.52 333.85 561.25 340.25 C 555.98 346.65 550.82 350.39 543.02 353.02 C 535.23 355.66 522.35 353.97 514.00 355.00 C 505.65 356.03 488.23 350.40 488.00 361.00 C 487.77 371.60 488.12 381.53 488.00 392.00 C 487.88 402.47 488.09 412.56 488.00 423.00
C 508.43 425.61 531.14 419.08 551.00 424.00
C 564.36 424.79 574.04 414.58 585.08 409.08 C 596.11 403.57 606.08 396.65 617.00 391.00
C 614.58 387.35 609.93 386.28 607.00 383.00
C 608.57 378.52 613.51 375.14 617.00 372.00
C 618.52 370.08 619.71 368.08 621.00 366.00
C 622.70 363.25 624.32 360.87 627.00 359.00
C 627.00 359.00 626.91 358.48 627.00 358.00
C 626.23 358.78 624.91 359.47 624.00 360.00
C 606.97 312.04 586.60 265.36 568.00 218.00
C 569.33 218.00 570.67 218.00 572.00 218.00
C 566.17 215.77 560.53 215.04 554.00 214.00
C 554.50 215.76 556.72 214.72 558.00 215.00
C 555.90 220.24 555.48 226.60 553.93 231.93 C 552.38 237.26 551.04 243.72 549.93 248.93 C 548.81 254.13 545.24 260.66 545.78 265.78 C 546.31 270.90 539.38 276.84 541.00 281.00 Z"/>
</g>
<g fill="None" fill-opacity="0.0" stroke="#5A585A" stroke-opacity="0.92" stroke-width="0.3"><path d="
M 324.00 229.00 
C 322.09 224.68 319.49 221.67 317.00 218.00
C 318.99 222.21 321.65 225.33 324.00 229.00 Z"/>
</g>
<g fill="None" fill-opacity="0.0" stroke="#93918E" stroke-opacity="1.00" stroke-width="0.3"><path d="
M 627.00 358.00 
C 627.15 357.16 627.68 356.77 628.00 356.00
C 630.03 351.10 633.24 345.72 635.00 341.00
C 638.99 324.12 640.42 307.94 639.00 290.00
C 638.59 287.88 636.63 284.55 636.00 282.00
C 630.34 259.17 614.61 239.86 594.00 228.00
C 589.89 225.64 585.05 222.87 581.00 221.00
C 577.92 220.05 574.90 219.11 572.00 218.00
C 570.67 218.00 569.33 218.00 568.00 218.00
C 586.60 265.36 606.97 312.04 624.00 360.00
C 624.91 359.47 626.23 358.78 627.00 358.00 Z"/>
</g>
<g fill="None" fill-opacity="0.0" stroke="#535150" stroke-opacity="0.92" stroke-width="0.3"><path d="
M 594.00 228.00 
C 589.76 224.72 586.29 222.63 581.00 221.00
C 585.05 222.87 589.89 225.64 594.00 228.00 Z"/>
</g>
<g fill="None" fill-opacity="0.0" stroke="#6B696D" stroke-opacity="1.00" stroke-width="0.3"><path d="
M 274.00 285.00 
C 279.36 291.54 283.91 302.35 287.92 311.08 C 291.94 319.80 298.25 330.08 300.92 339.08 C 303.59 348.07 314.67 357.89 312.00 367.00
C 317.14 363.82 319.90 379.06 323.25 382.75 C 326.60 386.45 331.89 395.29 334.08 400.92 C 336.26 406.56 340.63 413.78 343.23 419.77 C 345.83 425.76 350.30 432.63 353.75 438.25 C 357.19 443.88 359.34 451.23 363.70 456.30 C 368.06 461.38 368.98 471.00 373.75 475.25 C 378.51 479.51 377.97 490.87 384.00 493.00
C 383.83 492.57 384.00 492.00 384.00 492.00
C 381.92 488.59 379.15 485.14 379.00 481.00
C 382.97 479.28 385.10 481.37 388.00 484.00
C 385.07 471.61 380.62 459.13 376.98 447.02 C 373.33 434.92 369.10 422.85 364.98 411.02 C 360.85 399.20 356.58 387.27 352.32 375.68 C 348.06 364.09 343.66 353.04 339.31 341.69 C 334.95 330.35 329.59 318.55 325.77 307.23 C 321.95 295.91 313.87 285.03 311.31 273.69 C 308.74 262.36 296.64 252.03 297.00 241.00
C 290.45 256.18 281.51 270.30 274.00 285.00 Z"/>
</g>
<g fill="None" fill-opacity="0.0" stroke="#5A595A" stroke-opacity="0.92" stroke-width="0.3"><path d="
M 339.00 256.00 
C 336.47 250.39 333.48 245.78 330.00 241.00
C 332.74 246.35 336.01 251.11 339.00 256.00 Z"/>
</g>
<g fill="None" fill-opacity="0.0" stroke="#575456" stroke-opacity="0.92" stroke-width="0.3"><path d="
M 349.00 274.00 
C 346.45 269.01 344.05 265.44 341.00 261.00
C 343.17 265.82 346.31 269.79 349.00 274.00 Z"/>
</g>
<g fill="None" fill-opacity="0.0" stroke="#5B5956" stroke-opacity="0.93" stroke-width="0.3"><path d="
M 639.00 290.00 
C 638.72 286.50 637.03 284.62 636.00 282.00
C 636.63 284.55 638.59 287.88 639.00 290.00 Z"/>
</g>
<g fill="None" fill-opacity="0.0" stroke="#AAAAA9" stroke-opacity="1.00" stroke-width="0.3"><path d="
M 220.00 391.00 
C 224.20 388.72 223.94 394.47 228.00 395.00
C 230.60 390.30 240.98 389.79 246.70 384.70 C 252.41 379.60 261.39 380.09 266.00 373.00
C 263.02 409.15 257.74 446.17 253.00 481.00
C 253.95 479.07 256.98 476.87 258.00 475.00
C 264.46 460.04 273.06 445.83 280.00 431.00
C 283.35 423.84 287.16 416.61 291.00 410.00
C 297.12 395.83 307.66 381.78 312.00 367.00
C 314.67 357.89 303.59 348.07 300.92 339.08 C 298.25 330.08 291.94 319.80 287.92 311.08 C 283.91 302.35 279.36 291.54 274.00 285.00
C 256.06 320.10 237.51 355.60 220.00 391.00 Z"/>
</g>
<g fill="None" fill-opacity="0.0" stroke="#A1A0A0" stroke-opacity="1.00" stroke-width="0.3"><path d="
M 411.00 364.00 
C 411.11 362.99 412.94 360.70 412.00 359.00
C 414.82 360.36 418.37 360.06 420.00 363.00
C 421.45 360.55 420.92 357.57 422.00 355.00
C 426.69 355.69 439.21 360.40 442.89 355.89 C 446.57 351.38 443.49 341.31 447.00 338.00
C 446.69 347.35 465.40 332.96 459.00 344.00
C 462.96 343.63 463.64 338.35 467.00 337.00
C 471.01 340.25 474.96 340.18 477.00 345.00
C 477.66 335.17 475.67 324.01 478.00 315.00
C 478.00 308.75 478.57 302.22 478.00 296.00
C 475.15 284.73 457.90 291.39 447.00 290.00 C 436.10 288.61 421.26 291.04 410.00 290.00
C 411.16 314.53 408.01 339.91 411.00 364.00 Z"/>
</g>
<g fill="None" fill-opacity="0.0" stroke="#444044" stroke-opacity="0.98" stroke-width="0.3"><path d="
M 478.00 315.00 
C 478.00 326.00 478.00 337.00 478.00 348.00
C 478.00 394.64 478.93 441.38 478.00 488.00
C 480.45 467.77 478.99 445.11 479.00 424.00 C 479.01 402.89 479.97 379.97 479.00 359.00 C 478.03 338.03 482.11 315.87 478.00 296.00
C 478.57 302.22 478.00 308.75 478.00 315.00 Z"/>
</g>
<g fill="None" fill-opacity="0.0" stroke="#858386" stroke-opacity="1.00" stroke-width="0.3"><path d="
M 411.00 364.00 
C 411.53 368.24 411.55 372.07 413.00 376.00
C 415.17 380.20 418.69 384.48 421.00 389.00
C 424.01 387.12 426.42 390.68 428.00 393.00
C 430.42 388.49 432.04 392.17 432.00 387.00
C 438.08 386.96 440.07 393.91 439.00 399.00
C 445.08 398.09 439.88 389.57 443.00 386.00
C 444.59 390.03 454.89 392.90 458.00 386.00
C 462.66 387.44 466.25 383.73 471.00 387.00
C 474.72 382.81 475.99 384.83 477.00 389.00
C 477.67 375.50 475.67 360.68 478.00 348.00
C 478.00 337.00 478.00 326.00 478.00 315.00
C 475.67 324.01 477.66 335.17 477.00 345.00
C 474.96 340.18 471.01 340.25 467.00 337.00
C 463.64 338.35 462.96 343.63 459.00 344.00
C 465.40 332.96 446.69 347.35 447.00 338.00
C 443.49 341.31 446.57 351.38 442.89 355.89 C 439.21 360.40 426.69 355.69 422.00 355.00
C 420.92 357.57 421.45 360.55 420.00 363.00
C 418.37 360.06 414.82 360.36 412.00 359.00
C 412.94 360.70 411.11 362.99 411.00 364.00 Z"/>
</g>
<g fill="None" fill-opacity="0.0" stroke="#524F4F" stroke-opacity="0.93" stroke-width="0.3"><path d="
M 628.00 356.00 
C 631.72 351.85 633.70 346.49 635.00 341.00
C 633.24 345.72 630.03 351.10 628.00 356.00 Z"/>
</g>
<g fill="None" fill-opacity="0.0" stroke="#706D74" stroke-opacity="1.00" stroke-width="0.3"><path d="
M 421.00 389.00 
C 422.37 391.69 423.63 394.32 425.00 397.00
C 441.59 430.16 459.93 462.60 478.00 495.00
C 478.04 492.67 477.95 490.33 478.00 488.00
C 478.93 441.38 478.00 394.64 478.00 348.00
C 475.67 360.68 477.67 375.50 477.00 389.00
C 475.99 384.83 474.72 382.81 471.00 387.00
C 466.25 383.73 462.66 387.44 458.00 386.00
C 454.89 392.90 444.59 390.03 443.00 386.00
C 439.88 389.57 445.08 398.09 439.00 399.00
C 440.07 393.91 438.08 386.96 432.00 387.00
C 432.04 392.17 430.42 388.49 428.00 393.00
C 426.42 390.68 424.01 387.12 421.00 389.00 Z"/>
</g>
<g fill="None" fill-opacity="0.0" stroke="#494648" stroke-opacity="0.92" stroke-width="0.3"><path d="
M 621.00 366.00 
C 623.06 363.54 625.80 362.34 627.00 359.00
C 624.32 360.87 622.70 363.25 621.00 366.00 Z"/>
</g>
<g fill="None" fill-opacity="0.0" stroke="#5E5A61" stroke-opacity="1.00" stroke-width="0.3"><path d="
M 551.00 424.00 
C 587.34 433.00 595.20 492.90 557.00 507.00
C 554.65 508.68 554.25 510.42 551.00 511.00
C 553.02 511.61 554.50 514.69 556.00 516.00
C 565.67 520.84 574.28 529.64 583.00 536.00
C 586.55 538.59 594.71 543.74 597.25 546.75 C 599.78 549.76 612.27 555.21 611.00 559.00
C 617.16 554.34 622.88 549.13 628.25 543.25 C 633.61 537.36 637.60 531.60 641.70 524.70 C 645.80 517.80 649.32 510.70 651.68 502.68 C 654.03 494.66 657.12 484.90 657.00 476.00 C 656.88 467.10 657.47 453.73 655.78 445.22 C 654.09 436.72 650.35 429.81 646.77 422.23 C 643.19 414.65 640.05 409.46 633.75 403.25 C 627.45 397.04 625.85 392.97 616.75 388.25 C 607.65 383.54 610.58 380.13 617.00 372.00
C 613.51 375.14 608.57 378.52 607.00 383.00
C 609.93 386.28 614.58 387.35 617.00 391.00
C 606.08 396.65 596.11 403.57 585.08 409.08 C 574.04 414.58 564.36 424.79 551.00 424.00 Z"/>
</g>
<g fill="None" fill-opacity="0.0" stroke="#C1C0BF" stroke-opacity="1.00" stroke-width="0.3"><path d="
M 220.00 391.00 
C 187.45 452.60 155.38 515.25 124.00 578.00
C 125.25 578.28 126.78 577.63 128.00 578.00
C 139.53 579.78 154.44 578.28 166.00 578.00 C 177.56 577.72 192.43 581.00 203.00 577.00
C 211.52 572.35 214.00 557.20 219.68 548.68 C 225.35 540.16 229.96 528.51 235.08 519.08 C 240.19 509.64 245.05 498.69 250.00 489.00
C 251.32 486.42 251.82 483.39 253.00 481.00
C 257.74 446.17 263.02 409.15 266.00 373.00
C 261.39 380.09 252.41 379.60 246.70 384.70 C 240.98 389.79 230.60 390.30 228.00 395.00
C 223.94 394.47 224.20 388.72 220.00 391.00 Z"/>
</g>
<g fill="None" fill-opacity="0.0" stroke="#494549" stroke-opacity="0.92" stroke-width="0.3"><path d="
M 425.00 397.00 
C 423.63 394.32 422.37 391.69 421.00 389.00
C 418.69 384.48 415.17 380.20 413.00 376.00
C 415.81 383.60 420.56 390.59 425.00 397.00 Z"/>
</g>
<g fill="None" fill-opacity="0.0" stroke="#5D5B5D" stroke-opacity="0.92" stroke-width="0.3"><path d="
M 280.00 431.00 
C 284.01 424.17 287.77 417.49 291.00 410.00
C 287.16 416.61 283.35 423.84 280.00 431.00 Z"/>
</g>
<g fill="None" fill-opacity="0.0" stroke="#615E64" stroke-opacity="1.00" stroke-width="0.3"><path d="
M 416.00 509.00 
C 422.39 505.35 432.26 503.93 440.98 502.98 C 449.69 502.02 459.05 499.34 468.00 499.00
C 454.13 474.07 443.91 446.43 428.00 423.00
C 432.50 432.00 433.87 438.50 427.31 446.31 C 420.74 454.11 421.72 461.20 415.92 468.92 C 410.13 476.65 410.92 483.89 404.75 491.75 C 398.59 499.61 407.31 507.23 416.00 509.00 Z"/>
</g>
<g fill="None" fill-opacity="0.0" stroke="#5E5B61" stroke-opacity="1.00" stroke-width="0.3"><path d="
M 378.00 504.00 
C 372.59 496.02 370.56 485.57 365.30 477.70 C 360.05 469.82 357.43 460.63 351.75 453.25 C 346.07 445.86 344.97 432.04 334.00 433.00 C 323.03 433.96 307.55 432.14 297.00 432.00 C 286.46 431.86 285.12 445.75 279.77 452.77 C 274.42 459.80 271.65 470.14 266.77 477.77 C 261.89 485.40 257.47 494.58 254.00 503.00
C 294.90 505.06 336.70 503.53 378.00 504.00 Z"/>
</g>
<g fill="None" fill-opacity="0.0" stroke="#656163" stroke-opacity="0.93" stroke-width="0.3"><path d="
M 253.00 481.00 
C 251.82 483.39 251.32 486.42 250.00 489.00
C 252.80 484.62 255.81 480.07 258.00 475.00
C 256.98 476.87 253.95 479.07 253.00 481.00 Z"/>
</g>
<g fill="None" fill-opacity="0.0" stroke="#A8A6A8" stroke-opacity="1.00" stroke-width="0.3"><path d="
M 384.00 493.00 
C 388.25 503.83 394.52 513.71 400.08 523.92 C 405.63 534.14 409.97 544.83 416.08 554.92 C 422.18 565.02 424.38 579.96 439.00 579.00 C 453.62 578.04 471.18 579.49 486.00 579.00 C 500.82 578.51 518.56 579.36 533.00 579.00 C 547.44 578.64 563.30 578.99 575.98 574.98 C 588.65 570.97 596.98 567.81 608.00 561.00
C 603.40 550.04 591.64 543.99 583.00 536.00
C 574.28 529.64 565.67 520.84 556.00 516.00
C 539.39 507.69 515.79 513.43 498.00 511.00
C 496.67 511.00 495.33 511.00 494.00 511.00
C 478.43 511.00 461.77 511.43 447.00 510.00
C 443.00 510.00 439.00 510.00 435.00 510.00
C 431.33 510.00 427.67 510.00 424.00 510.00
C 416.23 508.88 399.42 513.22 401.00 501.00
C 394.86 498.97 391.49 490.83 384.00 492.00
C 384.00 492.00 383.83 492.57 384.00 493.00 Z"/>
</g>
<g fill="None" fill-opacity="0.0" stroke="#3A383B" stroke-opacity="0.96" stroke-width="0.3"><path d="
M 494.00 510.00 
C 494.04 510.00 494.00 511.00 494.00 511.00
C 495.33 511.00 496.67 511.00 498.00 511.00
C 514.76 511.00 534.54 513.95 551.00 511.00
C 554.25 510.42 554.65 508.68 557.00 507.00
C 538.82 513.71 513.73 510.00 494.00 510.00 Z"/>
</g>
<g fill="None" fill-opacity="0.0" stroke="#525053" stroke-opacity="0.98" stroke-width="0.3"><path d="
M 424.00 510.00 
C 427.67 510.00 431.33 510.00 435.00 510.00
C 431.99 509.71 427.75 509.00 424.00 509.00
C 424.00 509.00 423.96 510.00 424.00 510.00 Z"/>
</g>
<g fill="None" fill-opacity="0.0" stroke="#5F5C60" stroke-opacity="1.00" stroke-width="0.3"><path d="
M 494.00 511.00 
C 494.00 511.00 494.04 510.00 494.00 510.00
C 478.33 510.00 462.67 510.00 447.00 510.00
C 461.77 511.43 478.43 511.00 494.00 511.00 Z"/>
</g>
<g fill="None" fill-opacity="0.0" stroke="#888589" stroke-opacity="0.96" stroke-width="0.3"><path d="
M 556.00 516.00 
C 554.50 514.69 553.02 511.61 551.00 511.00
C 534.54 513.95 514.76 511.00 498.00 511.00
C 515.79 513.43 539.39 507.69 556.00 516.00 Z"/>
</g>
<g fill="None" fill-opacity="0.0" stroke="#807D81" stroke-opacity="0.94" stroke-width="0.3"><path d="
M 608.00 561.00 
C 608.99 560.39 610.04 559.73 611.00 559.00
C 612.27 555.21 599.78 549.76 597.25 546.75 C 594.71 543.74 586.55 538.59 583.00 536.00
C 591.64 543.99 603.40 550.04 608.00 561.00 Z"/>
</g>
<g fill="None" fill-opacity="0.0" stroke="#605E5F" stroke-opacity="0.95" stroke-width="0.3"><path d="
M 128.00 578.00 
C 138.31 581.12 154.74 579.22 166.00 579.00 C 177.26 578.78 193.51 582.18 203.00 577.00
C 192.43 581.00 177.56 577.72 166.00 578.00 C 154.44 578.28 139.53 579.78 128.00 578.00 Z"/>
</g>
<g fill="None" fill-opacity="0.0" stroke="#000000" stroke-opacity="0.00" stroke-width="0.3"><path d="
M 0.00 800.00 
L 183.00 800.00
C 89.33 793.39 6.62 710.74 0.00 617.00
L 0.00 800.00 Z"/>
</g>
<g fill="None" fill-opacity="0.0" stroke="#000000" stroke-opacity="0.00" stroke-width="0.3"><path d="
M 617.00 800.00 
L 800.00 800.00
L 800.00 617.00
C 793.39 710.67 710.74 793.38 617.00 800.00 Z"/>
</g>
<g fill="None" fill-opacity="0.0" stroke="#1E1B1E" stroke-opacity="0.69" stroke-width="0.3"><path d="
M 187.00 800.00 
L 193.00 800.00
C 192.04 798.31 188.03 798.57 187.00 800.00 Z"/>
</g>
<g fill="#000000" fill-opacity="0.00" stroke="None">
<path d="
M 0.00 183.00 
C 6.62 89.26 89.33 6.61 183.00 0.00
L 0.00 0.00
L 0.00 183.00 Z"/>
</g>
<g fill="#1E1A1E" fill-opacity="1.00" stroke="None">
<path d="
M 0.00 183.00 
L 0.00 187.00
C 1.43 188.03 1.69 192.04 0.00 193.00
L 0.00 617.00
C 6.62 710.74 89.33 793.39 183.00 800.00
L 187.00 800.00
C 188.03 798.57 192.04 798.31 193.00 800.00
L 617.00 800.00
C 710.74 793.38 793.39 710.67 800.00 617.00
L 800.00 193.00
C 798.57 191.97 798.31 187.96 800.00 187.00
L 800.00 183.00
C 793.37 89.26 710.67 6.61 617.00 0.00
L 193.00 0.00
C 191.97 1.43 187.96 1.69 187.00 0.00
L 183.00 0.00
C 89.33 6.61 6.62 89.26 0.00 183.00
M 317.00 218.00 
C 319.49 221.67 322.09 224.68 324.00 229.00
C 325.84 233.16 327.92 236.92 330.00 241.00
C 333.48 245.78 336.47 250.39 339.00 256.00
C 339.76 257.69 340.24 259.31 341.00 261.00
C 344.05 265.44 346.45 269.01 349.00 274.00
C 374.62 324.12 402.93 372.86 428.00 423.00
C 443.91 446.43 454.13 474.07 468.00 499.00
C 459.05 499.34 449.69 502.02 440.98 502.98 C 432.26 503.93 422.39 505.35 416.00 509.00
C 418.43 509.50 421.51 509.00 424.00 509.00
C 427.75 509.00 431.99 509.71 435.00 510.00
C 439.00 510.00 443.00 510.00 447.00 510.00
C 462.67 510.00 478.33 510.00 494.00 510.00
C 513.73 510.00 538.82 513.71 557.00 507.00
C 595.20 492.90 587.34 433.00 551.00 424.00
C 531.14 419.08 508.43 425.61 488.00 423.00
C 488.09 412.56 487.88 402.47 488.00 392.00 C 488.12 381.53 487.77 371.60 488.00 361.00 C 488.23 350.40 505.65 356.03 514.00 355.00 C 522.35 353.97 535.23 355.66 543.02 353.02 C 550.82 350.39 555.98 346.65 561.25 340.25 C 566.52 333.85 569.16 324.37 569.00 316.00 C 568.84 307.63 565.63 300.01 560.75 293.25 C 555.86 286.50 547.72 283.85 541.00 281.00
C 519.99 276.94 497.43 283.09 476.00 281.00 C 454.57 278.91 431.58 282.56 410.00 281.00
C 410.00 258.33 410.00 235.67 410.00 213.00
C 457.91 213.67 506.53 211.67 554.00 214.00
C 560.53 215.04 566.17 215.77 572.00 218.00
C 574.90 219.11 577.92 220.05 581.00 221.00
C 586.29 222.63 589.76 224.72 594.00 228.00
C 614.61 239.86 630.34 259.17 636.00 282.00
C 637.03 284.62 638.72 286.50 639.00 290.00
C 640.42 307.94 638.99 324.12 635.00 341.00
C 633.70 346.49 631.72 351.85 628.00 356.00
C 627.68 356.77 627.15 357.16 627.00 358.00
C 626.91 358.48 627.00 359.00 627.00 359.00
C 625.80 362.34 623.06 363.54 621.00 366.00
C 619.71 368.08 618.52 370.08 617.00 372.00
C 610.58 380.13 607.65 383.54 616.75 388.25 C 625.85 392.97 627.45 397.04 633.75 403.25 C 640.05 409.46 643.19 414.65 646.77 422.23 C 650.35 429.81 654.09 436.72 655.78 445.22 C 657.47 453.73 656.88 467.10 657.00 476.00 C 657.12 484.90 654.03 494.66 651.68 502.68 C 649.32 510.70 645.80 517.80 641.70 524.70 C 637.60 531.60 633.61 537.36 628.25 543.25 C 622.88 549.13 617.16 554.34 611.00 559.00
C 610.04 559.73 608.99 560.39 608.00 561.00
C 596.98 567.81 588.65 570.97 575.98 574.98 C 563.30 578.99 547.44 578.64 533.00 579.00 C 518.56 579.36 500.82 578.51 486.00 579.00 C 471.18 579.49 453.62 578.04 439.00 579.00 C 424.38 579.96 422.18 565.02 416.08 554.92 C 409.97 544.83 405.63 534.14 400.08 523.92 C 394.52 513.71 388.25 503.83 384.00 493.00
C 377.97 490.87 378.51 479.51 373.75 475.25 C 368.98 471.00 368.06 461.38 363.70 456.30 C 359.34 451.23 357.19 443.88 353.75 438.25 C 350.30 432.63 345.83 425.76 343.23 419.77 C 340.63 413.78 336.26 406.56 334.08 400.92 C 331.89 395.29 326.60 386.45 323.25 382.75 C 319.90 379.06 317.14 363.82 312.00 367.00
C 307.66 381.78 297.12 395.83 291.00 410.00
C 287.77 417.49 284.01 424.17 280.00 431.00
C 273.06 445.83 264.46 460.04 258.00 475.00
C 255.81 480.07 252.80 484.62 250.00 489.00
C 245.05 498.69 240.19 509.64 235.08 519.08 C 229.96 528.51 225.35 540.16 219.68 548.68 C 214.00 557.20 211.52 572.35 203.00 577.00
C 193.51 582.18 177.26 578.78 166.00 579.00 C 154.74 579.22 138.31 581.12 128.00 578.00
C 126.78 577.63 125.25 578.28 124.00 578.00
C 155.38 515.25 187.45 452.60 220.00 391.00
C 237.51 355.60 256.06 320.10 274.00 285.00
C 281.51 270.30 290.45 256.18 297.00 241.00
C 301.45 230.68 306.68 219.99 313.00 211.00
C 314.43 213.34 317.01 215.03 317.00 218.00
M 478.00 296.00 
C 482.11 315.87 478.03 338.03 479.00 359.00 C 479.97 379.97 479.01 402.89 479.00 424.00 C 478.99 445.11 480.45 467.77 478.00 488.00
C 477.95 490.33 478.04 492.67 478.00 495.00
C 459.93 462.60 441.59 430.16 425.00 397.00
C 420.56 390.59 415.81 383.60 413.00 376.00
C 411.55 372.07 411.53 368.24 411.00 364.00
C 408.01 339.91 411.16 314.53 410.00 290.00
C 421.26 291.04 436.10 288.61 447.00 290.00 C 457.90 291.39 475.15 284.73 478.00 296.00
M 378.00 504.00 
C 336.70 503.53 294.90 505.06 254.00 503.00
C 257.47 494.58 261.89 485.40 266.77 477.77 C 271.65 470.14 274.42 459.80 279.77 452.77 C 285.12 445.75 286.46 431.86 297.00 432.00 C 307.55 432.14 323.03 433.96 334.00 433.00 C 344.97 432.04 346.07 445.86 351.75 453.25 C 357.43 460.63 360.05 469.82 365.30 477.70 C 370.56 485.57 372.59 496.02 378.00 504.00 Z"/>
</g>
<g fill="#1E1B1E" fill-opacity="0.69" stroke="None">
<path d="
M 193.00 0.00 
L 187.00 0.00
C 187.96 1.69 191.97 1.43 193.00 0.00 Z"/>
</g>
<g fill="#000000" fill-opacity="0.00" stroke="None">
<path d="
M 800.00 183.00 
L 800.00 0.00
L 617.00 0.00
C 710.67 6.61 793.37 89.26 800.00 183.00 Z"/>
</g>
<g fill="#1E1B1E" fill-opacity="0.69" stroke="None">
<path d="
M 0.00 193.00 
C 1.69 192.04 1.43 188.03 0.00 187.00
L 0.00 193.00 Z"/>
</g>
<g fill="#1E1B1E" fill-opacity="0.69" stroke="None">
<path d="
M 800.00 193.00 
L 800.00 187.00
C 798.31 187.96 798.57 191.97 800.00 193.00 Z"/>
</g>
<g fill="#969597" fill-opacity="1.00" stroke="None">
<path d="
M 297.00 241.00 
C 296.64 252.03 308.74 262.36 311.31 273.69 C 313.87 285.03 321.95 295.91 325.77 307.23 C 329.59 318.55 334.95 330.35 339.31 341.69 C 343.66 353.04 348.06 364.09 352.32 375.68 C 356.58 387.27 360.85 399.20 364.98 411.02 C 369.10 422.85 373.33 434.92 376.98 447.02 C 380.62 459.13 385.07 471.61 388.00 484.00
C 385.10 481.37 382.97 479.28 379.00 481.00
C 379.15 485.14 381.92 488.59 384.00 492.00
C 391.49 490.83 394.86 498.97 401.00 501.00
C 399.42 513.22 416.23 508.88 424.00 510.00
C 423.96 510.00 424.00 509.00 424.00 509.00
C 421.51 509.00 418.43 509.50 416.00 509.00
C 407.31 507.23 398.59 499.61 404.75 491.75 C 410.92 483.89 410.13 476.65 415.92 468.92 C 421.72 461.20 420.74 454.11 427.31 446.31 C 433.87 438.50 432.50 432.00 428.00 423.00
C 402.93 372.86 374.62 324.12 349.00 274.00
C 346.31 269.79 343.17 265.82 341.00 261.00
C 340.24 259.31 339.76 257.69 339.00 256.00
C 336.01 251.11 332.74 246.35 330.00 241.00
C 327.92 236.92 325.84 233.16 324.00 229.00
C 321.65 225.33 318.99 222.21 317.00 218.00
C 317.01 215.03 314.43 213.34 313.00 211.00
C 306.68 219.99 301.45 230.68 297.00 241.00 Z"/>
</g>
<g fill="#858585" fill-opacity="1.00" stroke="None">
<path d="
M 541.00 281.00 
C 539.38 276.84 546.31 270.90 545.78 265.78 C 545.24 260.66 548.81 254.13 549.93 248.93 C 551.04 243.72 552.38 237.26 553.93 231.93 C 555.48 226.60 555.90 220.24 558.00 215.00
C 556.72 214.72 554.50 215.76 554.00 214.00
C 506.53 211.67 457.91 213.67 410.00 213.00
C 410.00 235.67 410.00 258.33 410.00 281.00
C 431.58 282.56 454.57 278.91 476.00 281.00 C 497.43 283.09 519.99 276.94 541.00 281.00 Z"/>
</g>
<g fill="#747273" fill-opacity="1.00" stroke="None">
<path d="
M 541.00 281.00 
C 547.72 283.85 555.86 286.50 560.75 293.25 C 565.63 300.01 568.84 307.63 569.00 316.00 C 569.16 324.37 566.52 333.85 561.25 340.25 C 555.98 346.65 550.82 350.39 543.02 353.02 C 535.23 355.66 522.35 353.97 514.00 355.00 C 505.65 356.03 488.23 350.40 488.00 361.00 C 487.77 371.60 488.12 381.53 488.00 392.00 C 487.88 402.47 488.09 412.56 488.00 423.00
C 508.43 425.61 531.14 419.08 551.00 424.00
C 564.36 424.79 574.04 414.58 585.08 409.08 C 596.11 403.57 606.08 396.65 617.00 391.00
C 614.58 387.35 609.93 386.28 607.00 383.00
C 608.57 378.52 613.51 375.14 617.00 372.00
C 618.52 370.08 619.71 368.08 621.00 366.00
C 622.70 363.25 624.32 360.87 627.00 359.00
C 627.00 359.00 626.91 358.48 627.00 358.00
C 626.23 358.78 624.91 359.47 624.00 360.00
C 606.97 312.04 586.60 265.36 568.00 218.00
C 569.33 218.00 570.67 218.00 572.00 218.00
C 566.17 215.77 560.53 215.04 554.00 214.00
C 554.50 215.76 556.72 214.72 558.00 215.00
C 555.90 220.24 555.48 226.60 553.93 231.93 C 552.38 237.26 551.04 243.72 549.93 248.93 C 548.81 254.13 545.24 260.66 545.78 265.78 C 546.31 270.90 539.38 276.84 541.00 281.00 Z"/>
</g>
<g fill="#5A585A" fill-opacity="0.92" stroke="None">
<path d="
M 324.00 229.00 
C 322.09 224.68 319.49 221.67 317.00 218.00
C 318.99 222.21 321.65 225.33 324.00 229.00 Z"/>
</g>
<g fill="#93918E" fill-opacity="1.00" stroke="None">
<path d="
M 627.00 358.00 
C 627.15 357.16 627.68 356.77 628.00 356.00
C 630.03 351.10 633.24 345.72 635.00 341.00
C 638.99 324.12 640.42 307.94 639.00 290.00
C 638.59 287.88 636.63 284.55 636.00 282.00
C 630.34 259.17 614.61 239.86 594.00 228.00
C 589.89 225.64 585.05 222.87 581.00 221.00
C 577.92 220.05 574.90 219.11 572.00 218.00
C 570.67 218.00 569.33 218.00 568.00 218.00
C 586.60 265.36 606.97 312.04 624.00 360.00
C 624.91 359.47 626.23 358.78 627.00 358.00 Z"/>
</g>
<g fill="#535150" fill-opacity="0.92" stroke="None">
<path d="
M 594.00 228.00 
C 589.76 224.72 586.29 222.63 581.00 221.00
C 585.05 222.87 589.89 225.64 594.00 228.00 Z"/>
</g>
<g fill="#6B696D" fill-opacity="1.00" stroke="None">
<path d="
M 274.00 285.00 
C 279.36 291.54 283.91 302.35 287.92 311.08 C 291.94 319.80 298.25 330.08 300.92 339.08 C 303.59 348.07 314.67 357.89 312.00 367.00
C 317.14 363.82 319.90 379.06 323.25 382.75 C 326.60 386.45 331.89 395.29 334.08 400.92 C 336.26 406.56 340.63 413.78 343.23 419.77 C 345.83 425.76 350.30 432.63 353.75 438.25 C 357.19 443.88 359.34 451.23 363.70 456.30 C 368.06 461.38 368.98 471.00 373.75 475.25 C 378.51 479.51 377.97 490.87 384.00 493.00
C 383.83 492.57 384.00 492.00 384.00 492.00
C 381.92 488.59 379.15 485.14 379.00 481.00
C 382.97 479.28 385.10 481.37 388.00 484.00
C 385.07 471.61 380.62 459.13 376.98 447.02 C 373.33 434.92 369.10 422.85 364.98 411.02 C 360.85 399.20 356.58 387.27 352.32 375.68 C 348.06 364.09 343.66 353.04 339.31 341.69 C 334.95 330.35 329.59 318.55 325.77 307.23 C 321.95 295.91 313.87 285.03 311.31 273.69 C 308.74 262.36 296.64 252.03 297.00 241.00
C 290.45 256.18 281.51 270.30 274.00 285.00 Z"/>
</g>
<g fill="#5A595A" fill-opacity="0.92" stroke="None">
<path d="
M 339.00 256.00 
C 336.47 250.39 333.48 245.78 330.00 241.00
C 332.74 246.35 336.01 251.11 339.00 256.00 Z"/>
</g>
<g fill="#575456" fill-opacity="0.92" stroke="None">
<path d="
M 349.00 274.00 
C 346.45 269.01 344.05 265.44 341.00 261.00
C 343.17 265.82 346.31 269.79 349.00 274.00 Z"/>
</g>
<g fill="#5B5956" fill-opacity="0.93" stroke="None">
<path d="
M 639.00 290.00 
C 638.72 286.50 637.03 284.62 636.00 282.00
C 636.63 284.55 638.59 287.88 639.00 290.00 Z"/>
</g>
<g fill="#AAAAA9" fill-opacity="1.00" stroke="None">
<path d="
M 220.00 391.00 
C 224.20 388.72 223.94 394.47 228.00 395.00
C 230.60 390.30 240.98 389.79 246.70 384.70 C 252.41 379.60 261.39 380.09 266.00 373.00
C 263.02 409.15 257.74 446.17 253.00 481.00
C 253.95 479.07 256.98 476.87 258.00 475.00
C 264.46 460.04 273.06 445.83 280.00 431.00
C 283.35 423.84 287.16 416.61 291.00 410.00
C 297.12 395.83 307.66 381.78 312.00 367.00
C 314.67 357.89 303.59 348.07 300.92 339.08 C 298.25 330.08 291.94 319.80 287.92 311.08 C 283.91 302.35 279.36 291.54 274.00 285.00
C 256.06 320.10 237.51 355.60 220.00 391.00 Z"/>
</g>
<g fill="#A1A0A0" fill-opacity="1.00" stroke="None">
<path d="
M 411.00 364.00 
C 411.11 362.99 412.94 360.70 412.00 359.00
C 414.82 360.36 418.37 360.06 420.00 363.00
C 421.45 360.55 420.92 357.57 422.00 355.00
C 426.69 355.69 439.21 360.40 442.89 355.89 C 446.57 351.38 443.49 341.31 447.00 338.00
C 446.69 347.35 465.40 332.96 459.00 344.00
C 462.96 343.63 463.64 338.35 467.00 337.00
C 471.01 340.25 474.96 340.18 477.00 345.00
C 477.66 335.17 475.67 324.01 478.00 315.00
C 478.00 308.75 478.57 302.22 478.00 296.00
C 475.15 284.73 457.90 291.39 447.00 290.00 C 436.10 288.61 421.26 291.04 410.00 290.00
C 411.16 314.53 408.01 339.91 411.00 364.00 Z"/>
</g>
<g fill="#444044" fill-opacity="0.98" stroke="None">
<path d="
M 478.00 315.00 
C 478.00 326.00 478.00 337.00 478.00 348.00
C 478.00 394.64 478.93 441.38 478.00 488.00
C 480.45 467.77 478.99 445.11 479.00 424.00 C 479.01 402.89 479.97 379.97 479.00 359.00 C 478.03 338.03 482.11 315.87 478.00 296.00
C 478.57 302.22 478.00 308.75 478.00 315.00 Z"/>
</g>
<g fill="#858386" fill-opacity="1.00" stroke="None">
<path d="
M 411.00 364.00 
C 411.53 368.24 411.55 372.07 413.00 376.00
C 415.17 380.20 418.69 384.48 421.00 389.00
C 424.01 387.12 426.42 390.68 428.00 393.00
C 430.42 388.49 432.04 392.17 432.00 387.00
C 438.08 386.96 440.07 393.91 439.00 399.00
C 445.08 398.09 439.88 389.57 443.00 386.00
C 444.59 390.03 454.89 392.90 458.00 386.00
C 462.66 387.44 466.25 383.73 471.00 387.00
C 474.72 382.81 475.99 384.83 477.00 389.00
C 477.67 375.50 475.67 360.68 478.00 348.00
C 478.00 337.00 478.00 326.00 478.00 315.00
C 475.67 324.01 477.66 335.17 477.00 345.00
C 474.96 340.18 471.01 340.25 467.00 337.00
C 463.64 338.35 462.96 343.63 459.00 344.00
C 465.40 332.96 446.69 347.35 447.00 338.00
C 443.49 341.31 446.57 351.38 442.89 355.89 C 439.21 360.40 426.69 355.69 422.00 355.00
C 420.92 357.57 421.45 360.55 420.00 363.00
C 418.37 360.06 414.82 360.36 412.00 359.00
C 412.94 360.70 411.11 362.99 411.00 364.00 Z"/>
</g>
<g fill="#524F4F" fill-opacity="0.93" stroke="None">
<path d="
M 628.00 356.00 
C 631.72 351.85 633.70 346.49 635.00 341.00
C 633.24 345.72 630.03 351.10 628.00 356.00 Z"/>
</g>
<g fill="#706D74" fill-opacity="1.00" stroke="None">
<path d="
M 421.00 389.00 
C 422.37 391.69 423.63 394.32 425.00 397.00
C 441.59 430.16 459.93 462.60 478.00 495.00
C 478.04 492.67 477.95 490.33 478.00 488.00
C 478.93 441.38 478.00 394.64 478.00 348.00
C 475.67 360.68 477.67 375.50 477.00 389.00
C 475.99 384.83 474.72 382.81 471.00 387.00
C 466.25 383.73 462.66 387.44 458.00 386.00
C 454.89 392.90 444.59 390.03 443.00 386.00
C 439.88 389.57 445.08 398.09 439.00 399.00
C 440.07 393.91 438.08 386.96 432.00 387.00
C 432.04 392.17 430.42 388.49 428.00 393.00
C 426.42 390.68 424.01 387.12 421.00 389.00 Z"/>
</g>
<g fill="#494648" fill-opacity="0.92" stroke="None">
<path d="
M 621.00 366.00 
C 623.06 363.54 625.80 362.34 627.00 359.00
C 624.32 360.87 622.70 363.25 621.00 366.00 Z"/>
</g>
<g fill="#5E5A61" fill-opacity="1.00" stroke="None">
<path d="
M 551.00 424.00 
C 587.34 433.00 595.20 492.90 557.00 507.00
C 554.65 508.68 554.25 510.42 551.00 511.00
C 553.02 511.61 554.50 514.69 556.00 516.00
C 565.67 520.84 574.28 529.64 583.00 536.00
C 586.55 538.59 594.71 543.74 597.25 546.75 C 599.78 549.76 612.27 555.21 611.00 559.00
C 617.16 554.34 622.88 549.13 628.25 543.25 C 633.61 537.36 637.60 531.60 641.70 524.70 C 645.80 517.80 649.32 510.70 651.68 502.68 C 654.03 494.66 657.12 484.90 657.00 476.00 C 656.88 467.10 657.47 453.73 655.78 445.22 C 654.09 436.72 650.35 429.81 646.77 422.23 C 643.19 414.65 640.05 409.46 633.75 403.25 C 627.45 397.04 625.85 392.97 616.75 388.25 C 607.65 383.54 610.58 380.13 617.00 372.00
C 613.51 375.14 608.57 378.52 607.00 383.00
C 609.93 386.28 614.58 387.35 617.00 391.00
C 606.08 396.65 596.11 403.57 585.08 409.08 C 574.04 414.58 564.36 424.79 551.00 424.00 Z"/>
</g>
<g fill="#C1C0BF" fill-opacity="1.00" stroke="None">
<path d="
M 220.00 391.00 
C 187.45 452.60 155.38 515.25 124.00 578.00
C 125.25 578.28 126.78 577.63 128.00 578.00
C 139.53 579.78 154.44 578.28 166.00 578.00 C 177.56 577.72 192.43 581.00 203.00 577.00
C 211.52 572.35 214.00 557.20 219.68 548.68 C 225.35 540.16 229.96 528.51 235.08 519.08 C 240.19 509.64 245.05 498.69 250.00 489.00
C 251.32 486.42 251.82 483.39 253.00 481.00
C 257.74 446.17 263.02 409.15 266.00 373.00
C 261.39 380.09 252.41 379.60 246.70 384.70 C 240.98 389.79 230.60 390.30 228.00 395.00
C 223.94 394.47 224.20 388.72 220.00 391.00 Z"/>
</g>
<g fill="#494549" fill-opacity="0.92" stroke="None">
<path d="
M 425.00 397.00 
C 423.63 394.32 422.37 391.69 421.00 389.00
C 418.69 384.48 415.17 380.20 413.00 376.00
C 415.81 383.60 420.56 390.59 425.00 397.00 Z"/>
</g>
<g fill="#5D5B5D" fill-opacity="0.92" stroke="None">
<path d="
M 280.00 431.00 
C 284.01 424.17 287.77 417.49 291.00 410.00
C 287.16 416.61 283.35 423.84 280.00 431.00 Z"/>
</g>
<g fill="#615E64" fill-opacity="1.00" stroke="None">
<path d="
M 416.00 509.00 
C 422.39 505.35 432.26 503.93 440.98 502.98 C 449.69 502.02 459.05 499.34 468.00 499.00
C 454.13 474.07 443.91 446.43 428.00 423.00
C 432.50 432.00 433.87 438.50 427.31 446.31 C 420.74 454.11 421.72 461.20 415.92 468.92 C 410.13 476.65 410.92 483.89 404.75 491.75 C 398.59 499.61 407.31 507.23 416.00 509.00 Z"/>
</g>
<g fill="#5E5B61" fill-opacity="1.00" stroke="None">
<path d="
M 378.00 504.00 
C 372.59 496.02 370.56 485.57 365.30 477.70 C 360.05 469.82 357.43 460.63 351.75 453.25 C 346.07 445.86 344.97 432.04 334.00 433.00 C 323.03 433.96 307.55 432.14 297.00 432.00 C 286.46 431.86 285.12 445.75 279.77 452.77 C 274.42 459.80 271.65 470.14 266.77 477.77 C 261.89 485.40 257.47 494.58 254.00 503.00
C 294.90 505.06 336.70 503.53 378.00 504.00 Z"/>
</g>
<g fill="#656163" fill-opacity="0.93" stroke="None">
<path d="
M 253.00 481.00 
C 251.82 483.39 251.32 486.42 250.00 489.00
C 252.80 484.62 255.81 480.07 258.00 475.00
C 256.98 476.87 253.95 479.07 253.00 481.00 Z"/>
</g>
<g fill="#A8A6A8" fill-opacity="1.00" stroke="None">
<path d="
M 384.00 493.00 
C 388.25 503.83 394.52 513.71 400.08 523.92 C 405.63 534.14 409.97 544.83 416.08 554.92 C 422.18 565.02 424.38 579.96 439.00 579.00 C 453.62 578.04 471.18 579.49 486.00 579.00 C 500.82 578.51 518.56 579.36 533.00 579.00 C 547.44 578.64 563.30 578.99 575.98 574.98 C 588.65 570.97 596.98 567.81 608.00 561.00
C 603.40 550.04 591.64 543.99 583.00 536.00
C 574.28 529.64 565.67 520.84 556.00 516.00
C 539.39 507.69 515.79 513.43 498.00 511.00
C 496.67 511.00 495.33 511.00 494.00 511.00
C 478.43 511.00 461.77 511.43 447.00 510.00
C 443.00 510.00 439.00 510.00 435.00 510.00
C 431.33 510.00 427.67 510.00 424.00 510.00
C 416.23 508.88 399.42 513.22 401.00 501.00
C 394.86 498.97 391.49 490.83 384.00 492.00
C 384.00 492.00 383.83 492.57 384.00 493.00 Z"/>
</g>
<g fill="#3A383B" fill-opacity="0.96" stroke="None">
<path d="
M 494.00 510.00 
C 494.04 510.00 494.00 511.00 494.00 511.00
C 495.33 511.00 496.67 511.00 498.00 511.00
C 514.76 511.00 534.54 513.95 551.00 511.00
C 554.25 510.42 554.65 508.68 557.00 507.00
C 538.82 513.71 513.73 510.00 494.00 510.00 Z"/>
</g>
<g fill="#525053" fill-opacity="0.98" stroke="None">
<path d="
M 424.00 510.00 
C 427.67 510.00 431.33 510.00 435.00 510.00
C 431.99 509.71 427.75 509.00 424.00 509.00
C 424.00 509.00 423.96 510.00 424.00 510.00 Z"/>
</g>
<g fill="#5F5C60" fill-opacity="1.00" stroke="None">
<path d="
M 494.00 511.00 
C 494.00 511.00 494.04 510.00 494.00 510.00
C 478.33 510.00 462.67 510.00 447.00 510.00
C 461.77 511.43 478.43 511.00 494.00 511.00 Z"/>
</g>
<g fill="#888589" fill-opacity="0.96" stroke="None">
<path d="
M 556.00 516.00 
C 554.50 514.69 553.02 511.61 551.00 511.00
C 534.54 513.95 514.76 511.00 498.00 511.00
C 515.79 513.43 539.39 507.69 556.00 516.00 Z"/>
</g>
<g fill="#807D81" fill-opacity="0.94" stroke="None">
<path d="
M 608.00 561.00 
C 608.99 560.39 610.04 559.73 611.00 559.00
C 612.27 555.21 599.78 549.76 597.25 546.75 C 594.71 543.74 586.55 538.59 583.00 536.00
C 591.64 543.99 603.40 550.04 608.00 561.00 Z"/>
</g>
<g fill="#605E5F" fill-opacity="0.95" stroke="None">
<path d="
M 128.00 578.00 
C 138.31 581.12 154.74 579.22 166.00 579.00 C 177.26 578.78 193.51 582.18 203.00 577.00
C 192.43 581.00 177.56 577.72 166.00 578.00 C 154.44 578.28 139.53 579.78 128.00 578.00 Z"/>
</g>
<g fill="#000000" fill-opacity="0.00" stroke="None">
<path d="
M 0.00 800.00 
L 183.00 800.00
C 89.33 793.39 6.62 710.74 0.00 617.00
L 0.00 800.00 Z"/>
</g>
<g fill="#000000" fill-opacity="0.00" stroke="None">
<path d="
M 617.00 800.00 
L 800.00 800.00
L 800.00 617.00
C 793.39 710.67 710.74 793.38 617.00 800.00 Z"/>
</g>
<g fill="#1E1B1E" fill-opacity="0.69" stroke="None">
<path d="
M 187.00 800.00 
L 193.00 800.00
C 192.04 798.31 188.03 798.57 187.00 800.00 Z"/>
</g>
</svg>