<!DOCTYPE svg PUBLIC "-//W3C//DTD SVG 1.1//EN" "http://www.w3.org/Graphics/SVG/1.1/DTD/svg11.dtd">
<!-- Uploaded to: SVG Repo, www.svgrepo.com, Transformed by: SVG Repo Mixer Tools -->
<svg width="256px" height="256px" viewBox="-51.2 -51.2 358.40 358.40" version="1.1" xmlns="http://www.w3.org/2000/svg" xmlns:xlink="http://www.w3.org/1999/xlink" preserveAspectRatio="xMidYMid" fill="#000000">
<g id="SVGRepo_bgCarrier" stroke-width="0">
<path transform="translate(-51.2, -51.2), scale(22.4)" fill="#8ad4ff" d="M9.166.33a2.25 2.25 0 00-2.332 0l-5.25 3.182A2.25 2.25 0 00.5 5.436v5.128a2.25 2.25 0 001.084 1.924l5.25 3.182a2.25 2.25 0 002.332 0l5.25-3.182a2.25 2.25 0 001.084-1.924V5.436a2.25 2.25 0 00-1.084-1.924L9.166.33z" strokewidth="0"/>
</g>
<g id="SVGRepo_tracerCarrier" stroke-linecap="round" stroke-linejoin="round" stroke="#fffafa" stroke-width="25.6"> <defs> <linearGradient x1="50%" y1="0%" x2="50%" y2="100%" id="linearGradient-1"> <stop stop-color="#0091E6" offset="0%"> </stop> <stop stop-color="#0079BF" offset="100%"> </stop> </linearGradient> </defs> <g> <g> <rect fill="url(#linearGradient-1)" x="0" y="0" width="256" height="256" rx="25"> </rect> <rect fill="#FFFFFF" x="144.64" y="33.28" width="78.08" height="112" rx="12"> </rect> <rect fill="#FFFFFF" x="33.28" y="33.28" width="78.08" height="176" rx="12"> </rect> </g> </g> </g>
<g id="SVGRepo_iconCarrier"> <defs> <linearGradient x1="50%" y1="0%" x2="50%" y2="100%" id="linearGradient-1"> <stop stop-color="#0091E6" offset="0%"> </stop> <stop stop-color="#0079BF" offset="100%"> </stop> </linearGradient> </defs> <g> <g> <rect fill="url(#linearGradient-1)" x="0" y="0" width="256" height="256" rx="25"> </rect> <rect fill="#FFFFFF" x="144.64" y="33.28" width="78.08" height="112" rx="12"> </rect> <rect fill="#FFFFFF" x="33.28" y="33.28" width="78.08" height="176" rx="12"> </rect> </g> </g> </g>
</svg>