<!DOCTYPE svg PUBLIC "-//W3C//DTD SVG 1.1//EN" "http://www.w3.org/Graphics/SVG/1.1/DTD/svg11.dtd">
<!-- Uploaded to: SVG Repo, www.svgrepo.com, Transformed by: SVG Repo Mixer Tools -->
<svg width="256px" height="256px" viewBox="-25.6 -25.6 307.20 307.20" version="1.1" xmlns="http://www.w3.org/2000/svg" xmlns:xlink="http://www.w3.org/1999/xlink" preserveAspectRatio="xMidYMid" fill="#000000">
<g id="SVGRepo_bgCarrier" stroke-width="0">
<path transform="translate(-25.6, -25.6), scale(19.2)" fill="#32929f" d="M9.166.33a2.25 2.25 0 00-2.332 0l-5.25 3.182A2.25 2.25 0 00.5 5.436v5.128a2.25 2.25 0 001.084 1.924l5.25 3.182a2.25 2.25 0 002.332 0l5.25-3.182a2.25 2.25 0 001.084-1.924V5.436a2.25 2.25 0 00-1.084-1.924L9.166.33z" strokewidth="0"/>
</g>
<g id="SVGRepo_tracerCarrier" stroke-linecap="round" stroke-linejoin="round" stroke="#ffffff" stroke-width="25.6"> <g> <path d="M118.249172,51.2326115 L118.249172,194.005605 L0,194.005605 L118.249172,51.2326115 Z M118.249172,2.84217094e-14 C118.249172,32.6440764 91.7686624,59.124586 59.124586,59.124586 C26.4805096,59.124586 0,32.6440764 0,2.84217094e-14 L118.249172,2.84217094e-14 Z M137.750828,194.005605 C137.750828,161.328917 164.198726,134.881019 196.875414,134.881019 C229.552102,134.881019 256,161.361529 256,194.005605 L137.750828,194.005605 Z M137.750828,142.740382 L137.750828,0 L256,0 L137.750828,142.740382 Z" fill="#03363D"> </path> </g> </g>
<g id="SVGRepo_iconCarrier"> <g> <path d="M118.249172,51.2326115 L118.249172,194.005605 L0,194.005605 L118.249172,51.2326115 Z M118.249172,2.84217094e-14 C118.249172,32.6440764 91.7686624,59.124586 59.124586,59.124586 C26.4805096,59.124586 0,32.6440764 0,2.84217094e-14 L118.249172,2.84217094e-14 Z M137.750828,194.005605 C137.750828,161.328917 164.198726,134.881019 196.875414,134.881019 C229.552102,134.881019 256,161.361529 256,194.005605 L137.750828,194.005605 Z M137.750828,142.740382 L137.750828,0 L256,0 L137.750828,142.740382 Z" fill="#03363D"> </path> </g> </g>
</svg>